<svg xmlns="http://www.w3.org/2000/svg" version="1.1" xmlns:xlink="http://www.w3.org/1999/xlink" xmlns:svgjs="http://svgjs.dev/svgjs" width="1440" height="560" preserveAspectRatio="none" viewBox="0 0 1440 560"><g mask="url(&quot;#SvgjsMask1000&quot;)" fill="none"><rect width="1440" height="560" x="0" y="0" fill="#0e2a47"></rect><path d="M1409.893,442.38C1446.139,443.339,1478.479,420.114,1495.724,388.218C1512.158,357.822,1510.011,320.72,1491.414,291.597C1474.137,264.541,1441.995,253.758,1409.893,253.804C1377.887,253.85,1345.287,264.411,1328.778,291.831C1311.808,320.017,1315.976,354.914,1331.581,383.877C1348.146,414.621,1374.982,441.457,1409.893,442.38" fill="rgba(28, 83, 142, 0.4)" class="triangle-float3"></path><path d="M863.489,388.068C917.609,388.33,973.729,367.171,998.283,318.94C1021.292,273.744,994.441,224.071,969.441,179.945C943.913,134.887,915.252,82.598,863.489,81.024C810.106,79.4,771.856,126.547,745.754,173.142C720.391,218.419,706.004,272.131,730.937,317.646C756.7,364.677,809.865,387.808,863.489,388.068" fill="rgba(28, 83, 142, 0.4)" class="triangle-float1"></path><path d="M67.45,91.293C95.387,89.932,121.256,78.732,137.209,55.757C156.116,28.528,170.132,-5.592,155.316,-35.247C139.281,-67.34,103.248,-86.229,67.45,-83.866C34.853,-81.714,13.62,-53.317,-2.382,-24.836C-17.947,2.867,-31.544,35.95,-15.169,63.182C0.899,89.902,36.308,92.81,67.45,91.293" fill="rgba(28, 83, 142, 0.4)" class="triangle-float1"></path><path d="M794.791,462.368C845.786,461.608,904.765,463.72,931.131,420.063C958.007,375.561,935.433,320.088,907.004,276.561C881.645,237.735,841.069,214.299,794.791,211.317C741.775,207.901,684.084,216.234,654.383,260.282C621.63,308.856,617.797,376.123,651.225,424.235C681.506,467.818,741.727,463.159,794.791,462.368" fill="rgba(28, 83, 142, 0.4)" class="triangle-float3"></path><path d="M684.6217940399692 308.9348759642131L801.1346628414061 257.0600045662234 749.2597914434165 140.5471357647865 632.7469226419796 192.4220071627762z" fill="rgba(28, 83, 142, 0.4)" class="triangle-float2"></path><path d="M1190.631414265994 331.1092256349232L1106.4618981022227 390.0453553402597 1236.950850742113 486.831564733248z" fill="rgba(28, 83, 142, 0.4)" class="triangle-float3"></path></g><defs><mask id="SvgjsMask1000"><rect width="1440" height="560" fill="#ffffff"></rect></mask><style>
                @keyframes float1 {
                    0%{transform: translate(0, 0)}
                    50%{transform: translate(-10px, 0)}
                    100%{transform: translate(0, 0)}
                }

                .triangle-float1 {
                    animation: float1 5s infinite;
                }

                @keyframes float2 {
                    0%{transform: translate(0, 0)}
                    50%{transform: translate(-5px, -5px)}
                    100%{transform: translate(0, 0)}
                }

                .triangle-float2 {
                    animation: float2 4s infinite;
                }

                @keyframes float3 {
                    0%{transform: translate(0, 0)}
                    50%{transform: translate(0, -10px)}
                    100%{transform: translate(0, 0)}
                }

                .triangle-float3 {
                    animation: float3 6s infinite;
                }
            </style></defs></svg>