<svg xmlns="http://www.w3.org/2000/svg" version="1.1" xmlns:xlink="http://www.w3.org/1999/xlink" xmlns:svgjs="http://svgjs.dev/svgjs" width="1500" height="700" preserveAspectRatio="none" viewBox="0 0 1500 700"><g mask="url(&quot;#SvgjsMask1030&quot;)" fill="none"><rect width="1500" height="700" x="0" y="0" fill="#0e2a47"></rect><path d="M13 700L713 0L923 0L223 700z" fill="url(&quot;#SvgjsLinearGradient1031&quot;)"></path><path d="M524 700L1224 0L1314 0L614 700z" fill="url(&quot;#SvgjsLinearGradient1031&quot;)"></path><path d="M1419 700L719 0L396.5 0L1096.5 700z" fill="url(&quot;#SvgjsLinearGradient1032&quot;)"></path><path d="M931 700L231 0L-205.5 0L494.5 700z" fill="url(&quot;#SvgjsLinearGradient1032&quot;)"></path><path d="M983.0020478370283 700L1500 183.00204783702827L1500 700z" fill="url(&quot;#SvgjsLinearGradient1031&quot;)"></path><path d="M0 700L516.9979521629717 700L 0 183.00204783702827z" fill="url(&quot;#SvgjsLinearGradient1032&quot;)"></path></g><defs><mask id="SvgjsMask1030"><rect width="1500" height="700" fill="#ffffff"></rect></mask><linearGradient x1="0%" y1="100%" x2="100%" y2="0%" id="SvgjsLinearGradient1031"><stop stop-color="rgba(15, 70, 185, 0.2)" offset="0"></stop><stop stop-opacity="0" stop-color="rgba(15, 70, 185, 0.2)" offset="0.66"></stop></linearGradient><linearGradient x1="100%" y1="100%" x2="0%" y2="0%" id="SvgjsLinearGradient1032"><stop stop-color="rgba(15, 70, 185, 0.2)" offset="0"></stop><stop stop-opacity="0" stop-color="rgba(15, 70, 185, 0.2)" offset="0.66"></stop></linearGradient></defs></svg>