<svg xmlns="http://www.w3.org/2000/svg" version="1.1" xmlns:xlink="http://www.w3.org/1999/xlink" xmlns:svgjs="http://svgjs.dev/svgjs" width="1500" height="700" preserveAspectRatio="none" viewBox="0 0 1500 700"><g mask="url(&quot;#SvgjsMask1037&quot;)" fill="none"><rect width="1500" height="700" x="0" y="0" fill="#0e2a47"></rect><path d="M-69.55 523.54L-69.55 523.54" stroke="#132e65" stroke-width="1.5"></path><path d="M-69.55 523.54L-106.44 660.39" stroke="#132e65" stroke-width="1.5"></path><path d="M-69.55 523.54L95.13 547.42" stroke="#132e65" stroke-width="1.5"></path><path d="M-69.55 523.54L79.25 692.71" stroke="#132e65" stroke-width="1.5"></path><path d="M-69.55 523.54L238.18 500.01" stroke="#132e65" stroke-width="1.5"></path><path d="M-69.55 523.54L44.52 813.65" stroke="#132e65" stroke-width="1.5"></path><path d="M-69.55 523.54L201.24 705.51" stroke="#132e65" stroke-width="1.5"></path><path d="M-106.44 660.39L-106.44 660.39" stroke="#132e65" stroke-width="1.5"></path><path d="M-106.44 660.39L79.25 692.71" stroke="#132e65" stroke-width="1.5"></path><path d="M-106.44 660.39L44.52 813.65" stroke="#132e65" stroke-width="1.5"></path><path d="M-106.44 660.39L95.13 547.42" stroke="#132e65" stroke-width="1.5"></path><path d="M-106.44 660.39L201.24 705.51" stroke="#132e65" stroke-width="1.5"></path><path d="M-106.44 660.39L221.46 789.02" stroke="#132e65" stroke-width="1.5"></path><path d="M95.13 547.42L95.13 547.42" stroke="#132e65" stroke-width="1.5"></path><path d="M95.13 547.42L79.25 692.71" stroke="#132e65" stroke-width="1.5"></path><path d="M95.13 547.42L238.18 500.01" stroke="#132e65" stroke-width="1.5"></path><path d="M79.25 692.71L79.25 692.71" stroke="#132e65" stroke-width="1.5"></path><path d="M79.25 692.71L201.24 705.51" stroke="#132e65" stroke-width="1.5"></path><path d="M79.25 692.71L44.52 813.65" stroke="#132e65" stroke-width="1.5"></path><path d="M44.52 813.65L44.52 813.65" stroke="#132e65" stroke-width="1.5"></path><path d="M44.52 813.65L221.46 789.02" stroke="#132e65" stroke-width="1.5"></path><path d="M238.18 500.01L238.18 500.01" stroke="#132e65" stroke-width="1.5"></path><path d="M238.18 500.01L349.08 538.17" stroke="#132e65" stroke-width="1.5"></path><path d="M238.18 500.01L201.24 705.51" stroke="#132e65" stroke-width="1.5"></path><path d="M238.18 500.01L370.01 700.43" stroke="#132e65" stroke-width="1.5"></path><path d="M238.18 500.01L79.25 692.71" stroke="#132e65" stroke-width="1.5"></path><path d="M201.24 705.51L201.24 705.51" stroke="#132e65" stroke-width="1.5"></path><path d="M201.24 705.51L221.46 789.02" stroke="#132e65" stroke-width="1.5"></path><path d="M201.24 705.51L370.01 700.43" stroke="#132e65" stroke-width="1.5"></path><path d="M201.24 705.51L95.13 547.42" stroke="#132e65" stroke-width="1.5"></path><path d="M221.46 789.02L221.46 789.02" stroke="#132e65" stroke-width="1.5"></path><path d="M221.46 789.02L79.25 692.71" stroke="#132e65" stroke-width="1.5"></path><path d="M349.08 538.17L349.08 538.17" stroke="#132e65" stroke-width="1.5"></path><path d="M349.08 538.17L489.8 517.12" stroke="#132e65" stroke-width="1.5"></path><path d="M349.08 538.17L370.01 700.43" stroke="#132e65" stroke-width="1.5"></path><path d="M349.08 538.17L505 687.39" stroke="#132e65" stroke-width="1.5"></path><path d="M370.01 700.43L370.01 700.43" stroke="#132e65" stroke-width="1.5"></path><path d="M370.01 700.43L394.75 823.62" stroke="#132e65" stroke-width="1.5"></path><path d="M370.01 700.43L505 687.39" stroke="#132e65" stroke-width="1.5"></path><path d="M370.01 700.43L221.46 789.02" stroke="#132e65" stroke-width="1.5"></path><path d="M394.75 823.62L394.75 823.62" stroke="#132e65" stroke-width="1.5"></path><path d="M394.75 823.62L550.15 832.3" stroke="#132e65" stroke-width="1.5"></path><path d="M512.1 348.87L512.1 348.87" stroke="#132e65" stroke-width="1.5"></path><path d="M512.1 348.87L489.8 517.12" stroke="#132e65" stroke-width="1.5"></path><path d="M512.1 348.87L696.87 403.68" stroke="#132e65" stroke-width="1.5"></path><path d="M512.1 348.87L349.08 538.17" stroke="#132e65" stroke-width="1.5"></path><path d="M489.8 517.12L489.8 517.12" stroke="#132e65" stroke-width="1.5"></path><path d="M489.8 517.12L505 687.39" stroke="#132e65" stroke-width="1.5"></path><path d="M489.8 517.12L700.06 539.68" stroke="#132e65" stroke-width="1.5"></path><path d="M505 687.39L505 687.39" stroke="#132e65" stroke-width="1.5"></path><path d="M505 687.39L550.15 832.3" stroke="#132e65" stroke-width="1.5"></path><path d="M550.15 832.3L550.15 832.3" stroke="#132e65" stroke-width="1.5"></path><path d="M550.15 832.3L706.8 800.33" stroke="#132e65" stroke-width="1.5"></path><path d="M696.87 403.68L696.87 403.68" stroke="#132e65" stroke-width="1.5"></path><path d="M696.87 403.68L789.33 401.04" stroke="#132e65" stroke-width="1.5"></path><path d="M696.87 403.68L700.06 539.68" stroke="#132e65" stroke-width="1.5"></path><path d="M700.06 539.68L700.06 539.68" stroke="#132e65" stroke-width="1.5"></path><path d="M700.06 539.68L688.68 656.39" stroke="#132e65" stroke-width="1.5"></path><path d="M700.06 539.68L826.26 547.68" stroke="#132e65" stroke-width="1.5"></path><path d="M688.68 656.39L688.68 656.39" stroke="#132e65" stroke-width="1.5"></path><path d="M688.68 656.39L706.8 800.33" stroke="#132e65" stroke-width="1.5"></path><path d="M688.68 656.39L842.72 701.7" stroke="#132e65" stroke-width="1.5"></path><path d="M706.8 800.33L706.8 800.33" stroke="#132e65" stroke-width="1.5"></path><path d="M706.8 800.33L791.34 833.1" stroke="#132e65" stroke-width="1.5"></path><path d="M805.57 255.32L805.57 255.32" stroke="#132e65" stroke-width="1.5"></path><path d="M805.57 255.32L789.33 401.04" stroke="#132e65" stroke-width="1.5"></path><path d="M805.57 255.32L969.31 206.83" stroke="#132e65" stroke-width="1.5"></path><path d="M805.57 255.32L696.87 403.68" stroke="#132e65" stroke-width="1.5"></path><path d="M805.57 255.32L947.08 379.68" stroke="#132e65" stroke-width="1.5"></path><path d="M805.57 255.32L1004.45 102.15" stroke="#132e65" stroke-width="1.5"></path><path d="M805.57 255.32L826.26 547.68" stroke="#132e65" stroke-width="1.5"></path><path d="M789.33 401.04L789.33 401.04" stroke="#132e65" stroke-width="1.5"></path><path d="M789.33 401.04L826.26 547.68" stroke="#132e65" stroke-width="1.5"></path><path d="M789.33 401.04L947.08 379.68" stroke="#132e65" stroke-width="1.5"></path><path d="M789.33 401.04L700.06 539.68" stroke="#132e65" stroke-width="1.5"></path><path d="M789.33 401.04L990.82 511.69" stroke="#132e65" stroke-width="1.5"></path><path d="M826.26 547.68L826.26 547.68" stroke="#132e65" stroke-width="1.5"></path><path d="M826.26 547.68L842.72 701.7" stroke="#132e65" stroke-width="1.5"></path><path d="M826.26 547.68L990.82 511.69" stroke="#132e65" stroke-width="1.5"></path><path d="M842.72 701.7L842.72 701.7" stroke="#132e65" stroke-width="1.5"></path><path d="M842.72 701.7L964.86 681.07" stroke="#132e65" stroke-width="1.5"></path><path d="M842.72 701.7L791.34 833.1" stroke="#132e65" stroke-width="1.5"></path><path d="M791.34 833.1L791.34 833.1" stroke="#132e65" stroke-width="1.5"></path><path d="M972.1 -89.48L972.1 -89.48" stroke="#132e65" stroke-width="1.5"></path><path d="M972.1 -89.48L1004.45 102.15" stroke="#132e65" stroke-width="1.5"></path><path d="M972.1 -89.48L1161.41 78.75" stroke="#132e65" stroke-width="1.5"></path><path d="M972.1 -89.48L969.31 206.83" stroke="#132e65" stroke-width="1.5"></path><path d="M972.1 -89.48L1287.16 -76.01" stroke="#132e65" stroke-width="1.5"></path><path d="M1004.45 102.15L1004.45 102.15" stroke="#132e65" stroke-width="1.5"></path><path d="M1004.45 102.15L969.31 206.83" stroke="#132e65" stroke-width="1.5"></path><path d="M1004.45 102.15L1113.07 206.22" stroke="#132e65" stroke-width="1.5"></path><path d="M1004.45 102.15L1161.41 78.75" stroke="#132e65" stroke-width="1.5"></path><path d="M969.31 206.83L969.31 206.83" stroke="#132e65" stroke-width="1.5"></path><path d="M969.31 206.83L1113.07 206.22" stroke="#132e65" stroke-width="1.5"></path><path d="M947.08 379.68L947.08 379.68" stroke="#132e65" stroke-width="1.5"></path><path d="M947.08 379.68L990.82 511.69" stroke="#132e65" stroke-width="1.5"></path><path d="M947.08 379.68L969.31 206.83" stroke="#132e65" stroke-width="1.5"></path><path d="M947.08 379.68L826.26 547.68" stroke="#132e65" stroke-width="1.5"></path><path d="M990.82 511.69L990.82 511.69" stroke="#132e65" stroke-width="1.5"></path><path d="M990.82 511.69L1156.65 549.99" stroke="#132e65" stroke-width="1.5"></path><path d="M990.82 511.69L964.86 681.07" stroke="#132e65" stroke-width="1.5"></path><path d="M990.82 511.69L1156.8 655.95" stroke="#132e65" stroke-width="1.5"></path><path d="M964.86 681.07L964.86 681.07" stroke="#132e65" stroke-width="1.5"></path><path d="M964.86 681.07L1010.49 796.09" stroke="#132e65" stroke-width="1.5"></path><path d="M1010.49 796.09L1010.49 796.09" stroke="#132e65" stroke-width="1.5"></path><path d="M1010.49 796.09L1134.41 819.85" stroke="#132e65" stroke-width="1.5"></path><path d="M1161.41 78.75L1161.41 78.75" stroke="#132e65" stroke-width="1.5"></path><path d="M1161.41 78.75L1265.08 73.44" stroke="#132e65" stroke-width="1.5"></path><path d="M1161.41 78.75L1113.07 206.22" stroke="#132e65" stroke-width="1.5"></path><path d="M1161.41 78.75L1255.48 220.1" stroke="#132e65" stroke-width="1.5"></path><path d="M1161.41 78.75L1287.16 -76.01" stroke="#132e65" stroke-width="1.5"></path><path d="M1113.07 206.22L1113.07 206.22" stroke="#132e65" stroke-width="1.5"></path><path d="M1113.07 206.22L1255.48 220.1" stroke="#132e65" stroke-width="1.5"></path><path d="M1113.07 206.22L1265.08 73.44" stroke="#132e65" stroke-width="1.5"></path><path d="M1156.65 549.99L1156.65 549.99" stroke="#132e65" stroke-width="1.5"></path><path d="M1156.65 549.99L1238.77 506.18" stroke="#132e65" stroke-width="1.5"></path><path d="M1156.65 549.99L1156.8 655.95" stroke="#132e65" stroke-width="1.5"></path><path d="M1156.65 549.99L1280.03 641.83" stroke="#132e65" stroke-width="1.5"></path><path d="M1156.8 655.95L1156.8 655.95" stroke="#132e65" stroke-width="1.5"></path><path d="M1156.8 655.95L1280.03 641.83" stroke="#132e65" stroke-width="1.5"></path><path d="M1156.8 655.95L1134.41 819.85" stroke="#132e65" stroke-width="1.5"></path><path d="M1156.8 655.95L1238.77 506.18" stroke="#132e65" stroke-width="1.5"></path><path d="M1156.8 655.95L964.86 681.07" stroke="#132e65" stroke-width="1.5"></path><path d="M1134.41 819.85L1134.41 819.85" stroke="#132e65" stroke-width="1.5"></path><path d="M1134.41 819.85L1302.18 858.54" stroke="#132e65" stroke-width="1.5"></path><path d="M1134.41 819.85L964.86 681.07" stroke="#132e65" stroke-width="1.5"></path><path d="M1134.41 819.85L1280.03 641.83" stroke="#132e65" stroke-width="1.5"></path><path d="M1134.41 819.85L1156.65 549.99" stroke="#132e65" stroke-width="1.5"></path><path d="M1287.16 -76.01L1287.16 -76.01" stroke="#132e65" stroke-width="1.5"></path><path d="M1287.16 -76.01L1404.58 -40.68" stroke="#132e65" stroke-width="1.5"></path><path d="M1287.16 -76.01L1265.08 73.44" stroke="#132e65" stroke-width="1.5"></path><path d="M1287.16 -76.01L1449.61 64.3" stroke="#132e65" stroke-width="1.5"></path><path d="M1287.16 -76.01L1255.48 220.1" stroke="#132e65" stroke-width="1.5"></path><path d="M1265.08 73.44L1265.08 73.44" stroke="#132e65" stroke-width="1.5"></path><path d="M1255.48 220.1L1255.48 220.1" stroke="#132e65" stroke-width="1.5"></path><path d="M1255.48 220.1L1265.08 73.44" stroke="#132e65" stroke-width="1.5"></path><path d="M1289.06 387.91L1289.06 387.91" stroke="#132e65" stroke-width="1.5"></path><path d="M1289.06 387.91L1238.77 506.18" stroke="#132e65" stroke-width="1.5"></path><path d="M1289.06 387.91L1437.44 390.67" stroke="#132e65" stroke-width="1.5"></path><path d="M1289.06 387.91L1255.48 220.1" stroke="#132e65" stroke-width="1.5"></path><path d="M1289.06 387.91L1156.65 549.99" stroke="#132e65" stroke-width="1.5"></path><path d="M1238.77 506.18L1238.77 506.18" stroke="#132e65" stroke-width="1.5"></path><path d="M1238.77 506.18L1280.03 641.83" stroke="#132e65" stroke-width="1.5"></path><path d="M1280.03 641.83L1280.03 641.83" stroke="#132e65" stroke-width="1.5"></path><path d="M1280.03 641.83L1433.35 557.85" stroke="#132e65" stroke-width="1.5"></path><path d="M1302.18 858.54L1302.18 858.54" stroke="#132e65" stroke-width="1.5"></path><path d="M1302.18 858.54L1429.33 827.48" stroke="#132e65" stroke-width="1.5"></path><path d="M1302.18 858.54L1280.03 641.83" stroke="#132e65" stroke-width="1.5"></path><path d="M1302.18 858.54L1156.8 655.95" stroke="#132e65" stroke-width="1.5"></path><path d="M1302.18 858.54L1010.49 796.09" stroke="#132e65" stroke-width="1.5"></path><path d="M1404.58 -40.68L1404.58 -40.68" stroke="#132e65" stroke-width="1.5"></path><path d="M1404.58 -40.68L1449.61 64.3" stroke="#132e65" stroke-width="1.5"></path><path d="M1404.58 -40.68L1265.08 73.44" stroke="#132e65" stroke-width="1.5"></path><path d="M1404.58 -40.68L1571.07 90.91" stroke="#132e65" stroke-width="1.5"></path><path d="M1404.58 -40.68L1433.93 212.21" stroke="#132e65" stroke-width="1.5"></path><path d="M1404.58 -40.68L1161.41 78.75" stroke="#132e65" stroke-width="1.5"></path><path d="M1449.61 64.3L1449.61 64.3" stroke="#132e65" stroke-width="1.5"></path><path d="M1449.61 64.3L1571.07 90.91" stroke="#132e65" stroke-width="1.5"></path><path d="M1449.61 64.3L1433.93 212.21" stroke="#132e65" stroke-width="1.5"></path><path d="M1433.93 212.21L1433.93 212.21" stroke="#132e65" stroke-width="1.5"></path><path d="M1433.93 212.21L1544.63 226.55" stroke="#132e65" stroke-width="1.5"></path><path d="M1437.44 390.67L1437.44 390.67" stroke="#132e65" stroke-width="1.5"></path><path d="M1437.44 390.67L1549.84 384.51" stroke="#132e65" stroke-width="1.5"></path><path d="M1433.35 557.85L1433.35 557.85" stroke="#132e65" stroke-width="1.5"></path><path d="M1433.35 557.85L1587.82 556.32" stroke="#132e65" stroke-width="1.5"></path><path d="M1433.35 557.85L1437.44 390.67" stroke="#132e65" stroke-width="1.5"></path><path d="M1433.35 557.85L1573.49 670.53" stroke="#132e65" stroke-width="1.5"></path><path d="M1433.35 557.85L1238.77 506.18" stroke="#132e65" stroke-width="1.5"></path><path d="M1429.33 827.48L1429.33 827.48" stroke="#132e65" stroke-width="1.5"></path><path d="M1429.33 827.48L1610.9 838.36" stroke="#132e65" stroke-width="1.5"></path><path d="M1429.33 827.48L1573.49 670.53" stroke="#132e65" stroke-width="1.5"></path><path d="M1429.33 827.48L1280.03 641.83" stroke="#132e65" stroke-width="1.5"></path><path d="M1571.07 90.91L1571.07 90.91" stroke="#132e65" stroke-width="1.5"></path><path d="M1571.07 90.91L1544.63 226.55" stroke="#132e65" stroke-width="1.5"></path><path d="M1544.63 226.55L1544.63 226.55" stroke="#132e65" stroke-width="1.5"></path><path d="M1544.63 226.55L1549.84 384.51" stroke="#132e65" stroke-width="1.5"></path><path d="M1544.63 226.55L1449.61 64.3" stroke="#132e65" stroke-width="1.5"></path><path d="M1544.63 226.55L1437.44 390.67" stroke="#132e65" stroke-width="1.5"></path><path d="M1549.84 384.51L1549.84 384.51" stroke="#132e65" stroke-width="1.5"></path><path d="M1587.82 556.32L1587.82 556.32" stroke="#132e65" stroke-width="1.5"></path><path d="M1587.82 556.32L1573.49 670.53" stroke="#132e65" stroke-width="1.5"></path><path d="M1587.82 556.32L1549.84 384.51" stroke="#132e65" stroke-width="1.5"></path><path d="M1587.82 556.32L1437.44 390.67" stroke="#132e65" stroke-width="1.5"></path><path d="M1587.82 556.32L1610.9 838.36" stroke="#132e65" stroke-width="1.5"></path><path d="M1587.82 556.32L1429.33 827.48" stroke="#132e65" stroke-width="1.5"></path><path d="M1573.49 670.53L1573.49 670.53" stroke="#132e65" stroke-width="1.5"></path><path d="M1573.49 670.53L1610.9 838.36" stroke="#132e65" stroke-width="1.5"></path><path d="M1610.9 838.36L1610.9 838.36" stroke="#132e65" stroke-width="1.5"></path><path d="M1610.9 838.36L1302.18 858.54" stroke="#132e65" stroke-width="1.5"></path><path d="M1610.9 838.36L1433.35 557.85" stroke="#132e65" stroke-width="1.5"></path><path d="M1610.9 838.36L1280.03 641.83" stroke="#132e65" stroke-width="1.5"></path><circle r="5" cx="-69.55" cy="523.54" fill="#132e65"></circle><circle r="5" cx="-106.44" cy="660.39" fill="#132e65"></circle><circle r="5" cx="95.13" cy="547.42" fill="#132e65"></circle><circle r="5" cx="79.25" cy="692.71" fill="#132e65"></circle><circle r="5" cx="44.52" cy="813.65" fill="#132e65"></circle><circle r="5" cx="238.18" cy="500.01" fill="#132e65"></circle><circle r="5" cx="201.24" cy="705.51" fill="#132e65"></circle><circle r="5" cx="221.46" cy="789.02" fill="#132e65"></circle><circle r="5" cx="349.08" cy="538.17" fill="#132e65"></circle><circle r="5" cx="370.01" cy="700.43" fill="#132e65"></circle><circle r="5" cx="394.75" cy="823.62" fill="#132e65"></circle><circle r="5" cx="512.1" cy="348.87" fill="#132e65"></circle><circle r="5" cx="489.8" cy="517.12" fill="#132e65"></circle><circle r="5" cx="505" cy="687.39" fill="#132e65"></circle><circle r="5" cx="550.15" cy="832.3" fill="#132e65"></circle><circle r="5" cx="696.87" cy="403.68" fill="#132e65"></circle><circle r="5" cx="700.06" cy="539.68" fill="#132e65"></circle><circle r="5" cx="688.68" cy="656.39" fill="#132e65"></circle><circle r="5" cx="706.8" cy="800.33" fill="#132e65"></circle><circle r="5" cx="805.57" cy="255.32" fill="#132e65"></circle><circle r="5" cx="789.33" cy="401.04" fill="#132e65"></circle><circle r="5" cx="826.26" cy="547.68" fill="#132e65"></circle><circle r="5" cx="842.72" cy="701.7" fill="#132e65"></circle><circle r="5" cx="791.34" cy="833.1" fill="#132e65"></circle><circle r="5" cx="972.1" cy="-89.48" fill="#132e65"></circle><circle r="5" cx="1004.45" cy="102.15" fill="#132e65"></circle><circle r="5" cx="969.31" cy="206.83" fill="#132e65"></circle><circle r="5" cx="947.08" cy="379.68" fill="#132e65"></circle><circle r="5" cx="990.82" cy="511.69" fill="#132e65"></circle><circle r="5" cx="964.86" cy="681.07" fill="#132e65"></circle><circle r="5" cx="1010.49" cy="796.09" fill="#132e65"></circle><circle r="5" cx="1161.41" cy="78.75" fill="#132e65"></circle><circle r="5" cx="1113.07" cy="206.22" fill="#132e65"></circle><circle r="5" cx="1156.65" cy="549.99" fill="#132e65"></circle><circle r="5" cx="1156.8" cy="655.95" fill="#132e65"></circle><circle r="5" cx="1134.41" cy="819.85" fill="#132e65"></circle><circle r="5" cx="1287.16" cy="-76.01" fill="#132e65"></circle><circle r="5" cx="1265.08" cy="73.44" fill="#132e65"></circle><circle r="5" cx="1255.48" cy="220.1" fill="#132e65"></circle><circle r="5" cx="1289.06" cy="387.91" fill="#132e65"></circle><circle r="5" cx="1238.77" cy="506.18" fill="#132e65"></circle><circle r="5" cx="1280.03" cy="641.83" fill="#132e65"></circle><circle r="5" cx="1302.18" cy="858.54" fill="#132e65"></circle><circle r="5" cx="1404.58" cy="-40.68" fill="#132e65"></circle><circle r="5" cx="1449.61" cy="64.3" fill="#132e65"></circle><circle r="5" cx="1433.93" cy="212.21" fill="#132e65"></circle><circle r="5" cx="1437.44" cy="390.67" fill="#132e65"></circle><circle r="5" cx="1433.35" cy="557.85" fill="#132e65"></circle><circle r="5" cx="1429.33" cy="827.48" fill="#132e65"></circle><circle r="5" cx="1571.07" cy="90.91" fill="#132e65"></circle><circle r="5" cx="1544.63" cy="226.55" fill="#132e65"></circle><circle r="5" cx="1549.84" cy="384.51" fill="#132e65"></circle><circle r="5" cx="1587.82" cy="556.32" fill="#132e65"></circle><circle r="5" cx="1573.49" cy="670.53" fill="#132e65"></circle><circle r="5" cx="1610.9" cy="838.36" fill="#132e65"></circle><path d="M67.74 852.88L67.74 852.88" stroke="hsl(228.5, 77.2%, 51.5%)" stroke-width="1.5"></path><path d="M67.74 852.88L202.87 821.45" stroke="hsl(228.5, 77.2%, 51.5%)" stroke-width="1.5"></path><path d="M67.74 852.88L-84.24 838.82" stroke="hsl(228.5, 77.2%, 51.5%)" stroke-width="1.5"></path><path d="M67.74 852.88L60.35 659.28" stroke="hsl(228.5, 77.2%, 51.5%)" stroke-width="1.5"></path><path d="M67.74 852.88L214.92 674.37" stroke="hsl(228.5, 77.2%, 51.5%)" stroke-width="1.5"></path><path d="M67.74 852.88L368.34 849.4" stroke="hsl(228.5, 77.2%, 51.5%)" stroke-width="1.5"></path><path d="M214.92 674.37L214.92 674.37" stroke="hsl(228.5, 77.2%, 51.5%)" stroke-width="1.5"></path><path d="M214.92 674.37L202.87 821.45" stroke="hsl(228.5, 77.2%, 51.5%)" stroke-width="1.5"></path><path d="M214.92 674.37L60.35 659.28" stroke="hsl(228.5, 77.2%, 51.5%)" stroke-width="1.5"></path><path d="M214.92 674.37L403.08 642.93" stroke="hsl(228.5, 77.2%, 51.5%)" stroke-width="1.5"></path><path d="M214.92 674.37L368.34 849.4" stroke="hsl(228.5, 77.2%, 51.5%)" stroke-width="1.5"></path><path d="M214.92 674.37L493.14 651.03" stroke="hsl(228.5, 77.2%, 51.5%)" stroke-width="1.5"></path><path d="M861.51 803.23L861.51 803.23" stroke="hsl(228.5, 77.2%, 51.5%)" stroke-width="1.5"></path><path d="M861.51 803.23L1010.3 819.93" stroke="hsl(228.5, 77.2%, 51.5%)" stroke-width="1.5"></path><path d="M861.51 803.23L954.94 671.85" stroke="hsl(228.5, 77.2%, 51.5%)" stroke-width="1.5"></path><path d="M861.51 803.23L677.55 795.03" stroke="hsl(228.5, 77.2%, 51.5%)" stroke-width="1.5"></path><path d="M972.86 342.71L972.86 342.71" stroke="hsl(228.5, 77.2%, 51.5%)" stroke-width="1.5"></path><path d="M972.86 342.71L1117.69 346.79" stroke="hsl(228.5, 77.2%, 51.5%)" stroke-width="1.5"></path><path d="M972.86 342.71L1108.2 217.39" stroke="hsl(228.5, 77.2%, 51.5%)" stroke-width="1.5"></path><path d="M1134.39 700.24L1134.39 700.24" stroke="hsl(228.5, 77.2%, 51.5%)" stroke-width="1.5"></path><path d="M1134.39 700.24L1260.63 708.37" stroke="hsl(228.5, 77.2%, 51.5%)" stroke-width="1.5"></path><path d="M1134.39 700.24L1010.3 819.93" stroke="hsl(228.5, 77.2%, 51.5%)" stroke-width="1.5"></path><path d="M1134.39 700.24L1277.21 808.02" stroke="hsl(228.5, 77.2%, 51.5%)" stroke-width="1.5"></path><path d="M1280.44 38.56L1280.44 38.56" stroke="hsl(228.5, 77.2%, 51.5%)" stroke-width="1.5"></path><path d="M1280.44 38.56L1263.21 -51.21" stroke="hsl(228.5, 77.2%, 51.5%)" stroke-width="1.5"></path><path d="M1280.44 38.56L1393.19 48.71" stroke="hsl(228.5, 77.2%, 51.5%)" stroke-width="1.5"></path><path d="M1280.44 38.56L1418.35 -62.29" stroke="hsl(228.5, 77.2%, 51.5%)" stroke-width="1.5"></path><path d="M1280.44 38.56L1295.4 224.6" stroke="hsl(228.5, 77.2%, 51.5%)" stroke-width="1.5"></path><path d="M1408.95 220L1408.95 220" stroke="hsl(228.5, 77.2%, 51.5%)" stroke-width="1.5"></path><path d="M1408.95 220L1295.4 224.6" stroke="hsl(228.5, 77.2%, 51.5%)" stroke-width="1.5"></path><path d="M1408.95 220L1538.07 236.91" stroke="hsl(228.5, 77.2%, 51.5%)" stroke-width="1.5"></path><path d="M1408.95 220L1410.74 368.68" stroke="hsl(228.5, 77.2%, 51.5%)" stroke-width="1.5"></path><path d="M1408.95 220L1393.19 48.71" stroke="hsl(228.5, 77.2%, 51.5%)" stroke-width="1.5"></path><path d="M1408.95 220L1266.15 348.08" stroke="hsl(228.5, 77.2%, 51.5%)" stroke-width="1.5"></path><path d="M1422.18 699.96L1422.18 699.96" stroke="hsl(228.5, 77.2%, 51.5%)" stroke-width="1.5"></path><path d="M1422.18 699.96L1395.01 829.9" stroke="hsl(228.5, 77.2%, 51.5%)" stroke-width="1.5"></path><path d="M1422.18 699.96L1546.89 643.55" stroke="hsl(228.5, 77.2%, 51.5%)" stroke-width="1.5"></path><path d="M1422.18 699.96L1260.63 708.37" stroke="hsl(228.5, 77.2%, 51.5%)" stroke-width="1.5"></path><path d="M1422.18 699.96L1277.21 808.02" stroke="hsl(228.5, 77.2%, 51.5%)" stroke-width="1.5"></path><path d="M1422.18 699.96L1401.34 514.61" stroke="hsl(228.5, 77.2%, 51.5%)" stroke-width="1.5"></path><path d="M1422.18 699.96L1268.36 523.36" stroke="hsl(228.5, 77.2%, 51.5%)" stroke-width="1.5"></path><path d="M1604.41 -38.86L1604.41 -38.86" stroke="hsl(228.5, 77.2%, 51.5%)" stroke-width="1.5"></path><path d="M1604.41 -38.86L1568.08 42.98" stroke="hsl(228.5, 77.2%, 51.5%)" stroke-width="1.5"></path><path d="M1604.41 -38.86L1418.35 -62.29" stroke="hsl(228.5, 77.2%, 51.5%)" stroke-width="1.5"></path><path d="M1585.04 375.58L1585.04 375.58" stroke="hsl(228.5, 77.2%, 51.5%)" stroke-width="1.5"></path><path d="M1585.04 375.58L1538.07 236.91" stroke="hsl(228.5, 77.2%, 51.5%)" stroke-width="1.5"></path><path d="M1585.04 375.58L1410.74 368.68" stroke="hsl(228.5, 77.2%, 51.5%)" stroke-width="1.5"></path><path d="M1585.04 375.58L1610.5 556.68" stroke="hsl(228.5, 77.2%, 51.5%)" stroke-width="1.5"></path><path d="M1585.04 375.58L1401.34 514.61" stroke="hsl(228.5, 77.2%, 51.5%)" stroke-width="1.5"></path><path d="M1585.04 375.58L1408.95 220" stroke="hsl(228.5, 77.2%, 51.5%)" stroke-width="1.5"></path><path d="M1585.04 375.58L1546.89 643.55" stroke="hsl(228.5, 77.2%, 51.5%)" stroke-width="1.5"></path><path d="M-84.24 838.82L-84.24 838.82" stroke="hsl(228.5, 77.2%, 51.5%)" stroke-width="1.5"></path><path d="M-84.24 838.82L60.35 659.28" stroke="hsl(228.5, 77.2%, 51.5%)" stroke-width="1.5"></path><path d="M-84.24 838.82L202.87 821.45" stroke="hsl(228.5, 77.2%, 51.5%)" stroke-width="1.5"></path><path d="M60.35 659.28L60.35 659.28" stroke="hsl(228.5, 77.2%, 51.5%)" stroke-width="1.5"></path><path d="M60.35 659.28L202.87 821.45" stroke="hsl(228.5, 77.2%, 51.5%)" stroke-width="1.5"></path><path d="M60.35 659.28L403.08 642.93" stroke="hsl(228.5, 77.2%, 51.5%)" stroke-width="1.5"></path><path d="M60.35 659.28L368.34 849.4" stroke="hsl(228.5, 77.2%, 51.5%)" stroke-width="1.5"></path><path d="M202.87 821.45L202.87 821.45" stroke="hsl(228.5, 77.2%, 51.5%)" stroke-width="1.5"></path><path d="M403.08 642.93L403.08 642.93" stroke="hsl(228.5, 77.2%, 51.5%)" stroke-width="1.5"></path><path d="M403.08 642.93L493.14 651.03" stroke="hsl(228.5, 77.2%, 51.5%)" stroke-width="1.5"></path><path d="M403.08 642.93L543.01 538.64" stroke="hsl(228.5, 77.2%, 51.5%)" stroke-width="1.5"></path><path d="M368.34 849.4L368.34 849.4" stroke="hsl(228.5, 77.2%, 51.5%)" stroke-width="1.5"></path><path d="M368.34 849.4L202.87 821.45" stroke="hsl(228.5, 77.2%, 51.5%)" stroke-width="1.5"></path><path d="M543.01 538.64L543.01 538.64" stroke="hsl(228.5, 77.2%, 51.5%)" stroke-width="1.5"></path><path d="M543.01 538.64L493.14 651.03" stroke="hsl(228.5, 77.2%, 51.5%)" stroke-width="1.5"></path><path d="M543.01 538.64L703.91 562.22" stroke="hsl(228.5, 77.2%, 51.5%)" stroke-width="1.5"></path><path d="M543.01 538.64L670.01 644.74" stroke="hsl(228.5, 77.2%, 51.5%)" stroke-width="1.5"></path><path d="M543.01 538.64L560.72 813.58" stroke="hsl(228.5, 77.2%, 51.5%)" stroke-width="1.5"></path><path d="M493.14 651.03L493.14 651.03" stroke="hsl(228.5, 77.2%, 51.5%)" stroke-width="1.5"></path><path d="M493.14 651.03L560.72 813.58" stroke="hsl(228.5, 77.2%, 51.5%)" stroke-width="1.5"></path><path d="M493.14 651.03L670.01 644.74" stroke="hsl(228.5, 77.2%, 51.5%)" stroke-width="1.5"></path><path d="M493.14 651.03L703.91 562.22" stroke="hsl(228.5, 77.2%, 51.5%)" stroke-width="1.5"></path><path d="M560.72 813.58L560.72 813.58" stroke="hsl(228.5, 77.2%, 51.5%)" stroke-width="1.5"></path><path d="M560.72 813.58L677.55 795.03" stroke="hsl(228.5, 77.2%, 51.5%)" stroke-width="1.5"></path><path d="M703.91 562.22L703.91 562.22" stroke="hsl(228.5, 77.2%, 51.5%)" stroke-width="1.5"></path><path d="M703.91 562.22L670.01 644.74" stroke="hsl(228.5, 77.2%, 51.5%)" stroke-width="1.5"></path><path d="M703.91 562.22L828.95 558.97" stroke="hsl(228.5, 77.2%, 51.5%)" stroke-width="1.5"></path><path d="M703.91 562.22L677.55 795.03" stroke="hsl(228.5, 77.2%, 51.5%)" stroke-width="1.5"></path><path d="M703.91 562.22L954.94 671.85" stroke="hsl(228.5, 77.2%, 51.5%)" stroke-width="1.5"></path><path d="M670.01 644.74L670.01 644.74" stroke="hsl(228.5, 77.2%, 51.5%)" stroke-width="1.5"></path><path d="M670.01 644.74L677.55 795.03" stroke="hsl(228.5, 77.2%, 51.5%)" stroke-width="1.5"></path><path d="M670.01 644.74L828.95 558.97" stroke="hsl(228.5, 77.2%, 51.5%)" stroke-width="1.5"></path><path d="M670.01 644.74L560.72 813.58" stroke="hsl(228.5, 77.2%, 51.5%)" stroke-width="1.5"></path><path d="M677.55 795.03L677.55 795.03" stroke="hsl(228.5, 77.2%, 51.5%)" stroke-width="1.5"></path><path d="M677.55 795.03L493.14 651.03" stroke="hsl(228.5, 77.2%, 51.5%)" stroke-width="1.5"></path><path d="M828.95 558.97L828.95 558.97" stroke="hsl(228.5, 77.2%, 51.5%)" stroke-width="1.5"></path><path d="M828.95 558.97L991.47 541.84" stroke="hsl(228.5, 77.2%, 51.5%)" stroke-width="1.5"></path><path d="M828.95 558.97L954.94 671.85" stroke="hsl(228.5, 77.2%, 51.5%)" stroke-width="1.5"></path><path d="M828.95 558.97L861.51 803.23" stroke="hsl(228.5, 77.2%, 51.5%)" stroke-width="1.5"></path><path d="M828.95 558.97L972.86 342.71" stroke="hsl(228.5, 77.2%, 51.5%)" stroke-width="1.5"></path><path d="M991.47 541.84L991.47 541.84" stroke="hsl(228.5, 77.2%, 51.5%)" stroke-width="1.5"></path><path d="M991.47 541.84L1115.13 519.69" stroke="hsl(228.5, 77.2%, 51.5%)" stroke-width="1.5"></path><path d="M991.47 541.84L954.94 671.85" stroke="hsl(228.5, 77.2%, 51.5%)" stroke-width="1.5"></path><path d="M954.94 671.85L954.94 671.85" stroke="hsl(228.5, 77.2%, 51.5%)" stroke-width="1.5"></path><path d="M954.94 671.85L1010.3 819.93" stroke="hsl(228.5, 77.2%, 51.5%)" stroke-width="1.5"></path><path d="M1010.3 819.93L1010.3 819.93" stroke="hsl(228.5, 77.2%, 51.5%)" stroke-width="1.5"></path><path d="M1010.3 819.93L1277.21 808.02" stroke="hsl(228.5, 77.2%, 51.5%)" stroke-width="1.5"></path><path d="M1108.2 217.39L1108.2 217.39" stroke="hsl(228.5, 77.2%, 51.5%)" stroke-width="1.5"></path><path d="M1108.2 217.39L1117.69 346.79" stroke="hsl(228.5, 77.2%, 51.5%)" stroke-width="1.5"></path><path d="M1108.2 217.39L1295.4 224.6" stroke="hsl(228.5, 77.2%, 51.5%)" stroke-width="1.5"></path><path d="M1108.2 217.39L1266.15 348.08" stroke="hsl(228.5, 77.2%, 51.5%)" stroke-width="1.5"></path><path d="M1108.2 217.39L1280.44 38.56" stroke="hsl(228.5, 77.2%, 51.5%)" stroke-width="1.5"></path><path d="M1117.69 346.79L1117.69 346.79" stroke="hsl(228.5, 77.2%, 51.5%)" stroke-width="1.5"></path><path d="M1117.69 346.79L1266.15 348.08" stroke="hsl(228.5, 77.2%, 51.5%)" stroke-width="1.5"></path><path d="M1117.69 346.79L1115.13 519.69" stroke="hsl(228.5, 77.2%, 51.5%)" stroke-width="1.5"></path><path d="M1117.69 346.79L1295.4 224.6" stroke="hsl(228.5, 77.2%, 51.5%)" stroke-width="1.5"></path><path d="M1117.69 346.79L1268.36 523.36" stroke="hsl(228.5, 77.2%, 51.5%)" stroke-width="1.5"></path><path d="M1115.13 519.69L1115.13 519.69" stroke="hsl(228.5, 77.2%, 51.5%)" stroke-width="1.5"></path><path d="M1115.13 519.69L1268.36 523.36" stroke="hsl(228.5, 77.2%, 51.5%)" stroke-width="1.5"></path><path d="M1263.21 -51.21L1263.21 -51.21" stroke="hsl(228.5, 77.2%, 51.5%)" stroke-width="1.5"></path><path d="M1263.21 -51.21L1418.35 -62.29" stroke="hsl(228.5, 77.2%, 51.5%)" stroke-width="1.5"></path><path d="M1263.21 -51.21L1393.19 48.71" stroke="hsl(228.5, 77.2%, 51.5%)" stroke-width="1.5"></path><path d="M1263.21 -51.21L1295.4 224.6" stroke="hsl(228.5, 77.2%, 51.5%)" stroke-width="1.5"></path><path d="M1263.21 -51.21L1408.95 220" stroke="hsl(228.5, 77.2%, 51.5%)" stroke-width="1.5"></path><path d="M1263.21 -51.21L1108.2 217.39" stroke="hsl(228.5, 77.2%, 51.5%)" stroke-width="1.5"></path><path d="M1295.4 224.6L1295.4 224.6" stroke="hsl(228.5, 77.2%, 51.5%)" stroke-width="1.5"></path><path d="M1295.4 224.6L1266.15 348.08" stroke="hsl(228.5, 77.2%, 51.5%)" stroke-width="1.5"></path><path d="M1295.4 224.6L1410.74 368.68" stroke="hsl(228.5, 77.2%, 51.5%)" stroke-width="1.5"></path><path d="M1266.15 348.08L1266.15 348.08" stroke="hsl(228.5, 77.2%, 51.5%)" stroke-width="1.5"></path><path d="M1266.15 348.08L1410.74 368.68" stroke="hsl(228.5, 77.2%, 51.5%)" stroke-width="1.5"></path><path d="M1268.36 523.36L1268.36 523.36" stroke="hsl(228.5, 77.2%, 51.5%)" stroke-width="1.5"></path><path d="M1268.36 523.36L1401.34 514.61" stroke="hsl(228.5, 77.2%, 51.5%)" stroke-width="1.5"></path><path d="M1260.63 708.37L1260.63 708.37" stroke="hsl(228.5, 77.2%, 51.5%)" stroke-width="1.5"></path><path d="M1260.63 708.37L1277.21 808.02" stroke="hsl(228.5, 77.2%, 51.5%)" stroke-width="1.5"></path><path d="M1260.63 708.37L1395.01 829.9" stroke="hsl(228.5, 77.2%, 51.5%)" stroke-width="1.5"></path><path d="M1260.63 708.37L1268.36 523.36" stroke="hsl(228.5, 77.2%, 51.5%)" stroke-width="1.5"></path><path d="M1277.21 808.02L1277.21 808.02" stroke="hsl(228.5, 77.2%, 51.5%)" stroke-width="1.5"></path><path d="M1277.21 808.02L1395.01 829.9" stroke="hsl(228.5, 77.2%, 51.5%)" stroke-width="1.5"></path><path d="M1418.35 -62.29L1418.35 -62.29" stroke="hsl(228.5, 77.2%, 51.5%)" stroke-width="1.5"></path><path d="M1418.35 -62.29L1393.19 48.71" stroke="hsl(228.5, 77.2%, 51.5%)" stroke-width="1.5"></path><path d="M1393.19 48.71L1393.19 48.71" stroke="hsl(228.5, 77.2%, 51.5%)" stroke-width="1.5"></path><path d="M1410.74 368.68L1410.74 368.68" stroke="hsl(228.5, 77.2%, 51.5%)" stroke-width="1.5"></path><path d="M1410.74 368.68L1401.34 514.61" stroke="hsl(228.5, 77.2%, 51.5%)" stroke-width="1.5"></path><path d="M1401.34 514.61L1401.34 514.61" stroke="hsl(228.5, 77.2%, 51.5%)" stroke-width="1.5"></path><path d="M1401.34 514.61L1546.89 643.55" stroke="hsl(228.5, 77.2%, 51.5%)" stroke-width="1.5"></path><path d="M1401.34 514.61L1610.5 556.68" stroke="hsl(228.5, 77.2%, 51.5%)" stroke-width="1.5"></path><path d="M1401.34 514.61L1266.15 348.08" stroke="hsl(228.5, 77.2%, 51.5%)" stroke-width="1.5"></path><path d="M1395.01 829.9L1395.01 829.9" stroke="hsl(228.5, 77.2%, 51.5%)" stroke-width="1.5"></path><path d="M1568.08 42.98L1568.08 42.98" stroke="hsl(228.5, 77.2%, 51.5%)" stroke-width="1.5"></path><path d="M1568.08 42.98L1393.19 48.71" stroke="hsl(228.5, 77.2%, 51.5%)" stroke-width="1.5"></path><path d="M1568.08 42.98L1418.35 -62.29" stroke="hsl(228.5, 77.2%, 51.5%)" stroke-width="1.5"></path><path d="M1568.08 42.98L1538.07 236.91" stroke="hsl(228.5, 77.2%, 51.5%)" stroke-width="1.5"></path><path d="M1568.08 42.98L1408.95 220" stroke="hsl(228.5, 77.2%, 51.5%)" stroke-width="1.5"></path><path d="M1538.07 236.91L1538.07 236.91" stroke="hsl(228.5, 77.2%, 51.5%)" stroke-width="1.5"></path><path d="M1610.5 556.68L1610.5 556.68" stroke="hsl(228.5, 77.2%, 51.5%)" stroke-width="1.5"></path><path d="M1610.5 556.68L1546.89 643.55" stroke="hsl(228.5, 77.2%, 51.5%)" stroke-width="1.5"></path><path d="M1546.89 643.55L1546.89 643.55" stroke="hsl(228.5, 77.2%, 51.5%)" stroke-width="1.5"></path><path d="M1546.89 643.55L1395.01 829.9" stroke="hsl(228.5, 77.2%, 51.5%)" stroke-width="1.5"></path><path d="M1546.89 643.55L1260.63 708.37" stroke="hsl(228.5, 77.2%, 51.5%)" stroke-width="1.5"></path><circle r="25" cx="67.74" cy="852.88" fill="url(&quot;#SvgjsRadialGradient1038&quot;)"></circle><circle r="25" cx="214.92" cy="674.37" fill="url(&quot;#SvgjsRadialGradient1038&quot;)"></circle><circle r="25" cx="861.51" cy="803.23" fill="url(&quot;#SvgjsRadialGradient1038&quot;)"></circle><circle r="25" cx="972.86" cy="342.71" fill="url(&quot;#SvgjsRadialGradient1038&quot;)"></circle><circle r="25" cx="1134.39" cy="700.24" fill="url(&quot;#SvgjsRadialGradient1038&quot;)"></circle><circle r="25" cx="1280.44" cy="38.56" fill="url(&quot;#SvgjsRadialGradient1038&quot;)"></circle><circle r="25" cx="1408.95" cy="220" fill="url(&quot;#SvgjsRadialGradient1038&quot;)"></circle><circle r="25" cx="1422.18" cy="699.96" fill="url(&quot;#SvgjsRadialGradient1038&quot;)"></circle><circle r="25" cx="1604.41" cy="-38.86" fill="url(&quot;#SvgjsRadialGradient1038&quot;)"></circle><circle r="25" cx="1585.04" cy="375.58" fill="url(&quot;#SvgjsRadialGradient1038&quot;)"></circle><circle r="5" cx="-84.24" cy="838.82" fill="#8b9ad9"></circle><circle r="5" cx="60.35" cy="659.28" fill="#8b9ad9"></circle><circle r="5" cx="202.87" cy="821.45" fill="#8b9ad9"></circle><circle r="5" cx="403.08" cy="642.93" fill="#8b9ad9"></circle><circle r="5" cx="368.34" cy="849.4" fill="#8b9ad9"></circle><circle r="5" cx="543.01" cy="538.64" fill="#8b9ad9"></circle><circle r="5" cx="493.14" cy="651.03" fill="#8b9ad9"></circle><circle r="5" cx="560.72" cy="813.58" fill="#8b9ad9"></circle><circle r="5" cx="703.91" cy="562.22" fill="#8b9ad9"></circle><circle r="5" cx="670.01" cy="644.74" fill="#8b9ad9"></circle><circle r="5" cx="677.55" cy="795.03" fill="#8b9ad9"></circle><circle r="5" cx="828.95" cy="558.97" fill="#8b9ad9"></circle><circle r="5" cx="991.47" cy="541.84" fill="#8b9ad9"></circle><circle r="5" cx="954.94" cy="671.85" fill="#8b9ad9"></circle><circle r="5" cx="1010.3" cy="819.93" fill="#8b9ad9"></circle><circle r="5" cx="1108.2" cy="217.39" fill="#8b9ad9"></circle><circle r="5" cx="1117.69" cy="346.79" fill="#8b9ad9"></circle><circle r="5" cx="1115.13" cy="519.69" fill="#8b9ad9"></circle><circle r="5" cx="1263.21" cy="-51.21" fill="#8b9ad9"></circle><circle r="5" cx="1295.4" cy="224.6" fill="#8b9ad9"></circle><circle r="5" cx="1266.15" cy="348.08" fill="#8b9ad9"></circle><circle r="5" cx="1268.36" cy="523.36" fill="#8b9ad9"></circle><circle r="5" cx="1260.63" cy="708.37" fill="#8b9ad9"></circle><circle r="5" cx="1277.21" cy="808.02" fill="#8b9ad9"></circle><circle r="5" cx="1418.35" cy="-62.29" fill="#8b9ad9"></circle><circle r="5" cx="1393.19" cy="48.71" fill="#8b9ad9"></circle><circle r="5" cx="1410.74" cy="368.68" fill="#8b9ad9"></circle><circle r="5" cx="1401.34" cy="514.61" fill="#8b9ad9"></circle><circle r="5" cx="1395.01" cy="829.9" fill="#8b9ad9"></circle><circle r="5" cx="1568.08" cy="42.98" fill="#8b9ad9"></circle><circle r="5" cx="1538.07" cy="236.91" fill="#8b9ad9"></circle><circle r="5" cx="1610.5" cy="556.68" fill="#8b9ad9"></circle><circle r="5" cx="1546.89" cy="643.55" fill="#8b9ad9"></circle></g><defs><mask id="SvgjsMask1037"><rect width="1500" height="700" fill="#ffffff"></rect></mask><radialGradient id="SvgjsRadialGradient1038"><stop stop-color="#ffffff" offset="0.1"></stop><stop stop-color="#1735b3" offset="0.2"></stop><stop stop-color="rgba(23, 53, 179, 0)" offset="1"></stop></radialGradient></defs></svg>